<svg width="512" height="318" viewBox="0 0 512 318" fill="none" xmlns="http://www.w3.org/2000/svg">
<path d="M237.719 74.5786C236.619 75.6786 235.719 77.4786 235.719 78.4786C235.719 80.8786 239.319 83.5786 242.419 83.5786C245.019 83.5786 248.719 80.3786 248.719 78.0786C248.719 75.7786 245.019 72.5786 242.219 72.5786C240.819 72.5786 238.819 73.4786 237.719 74.5786Z" fill="black" fill-opacity="0.85"/>
<path d="M292.719 116.079C292.719 120.079 292.919 120.179 301.119 117.879L307.219 116.179L301.719 114.479C293.519 111.879 292.719 111.979 292.719 116.079Z" fill="black" fill-opacity="0.85"/>
<path d="M200.719 117.078V120.678L209.019 120.378L217.219 120.078L217.519 116.778L217.819 113.578H209.319H200.719V117.078Z" fill="black" fill-opacity="0.85"/>
<path d="M245.819 138.279C239.719 140.479 232.519 147.879 230.419 154.079C226.819 164.579 229.119 175.079 236.719 182.579C247.319 193.279 264.119 193.279 274.719 182.579C291.919 165.479 279.519 136.279 255.319 136.679C252.519 136.679 248.219 137.479 245.819 138.279ZM256.919 145.979C263.919 148.179 265.719 149.379 267.319 153.279C269.919 159.479 266.119 166.079 261.319 163.379C260.119 162.679 259.719 160.979 259.719 156.579C259.719 153.279 259.319 150.579 258.719 150.579C258.119 150.579 257.719 155.879 257.719 164.579C257.719 172.279 257.519 178.579 257.219 178.579C256.919 178.579 255.119 177.879 253.219 177.179L249.719 175.679V160.179C249.719 142.879 249.319 143.679 256.919 145.979ZM248.719 165.579C248.719 167.079 247.419 168.279 244.519 169.679L240.219 171.579L244.519 171.179C248.119 170.779 248.719 171.079 248.719 172.679C248.719 174.179 248.019 174.579 245.019 174.579C236.819 174.579 231.119 171.379 234.919 168.879C236.219 168.079 246.619 163.879 248.019 163.679C248.419 163.679 248.719 164.479 248.719 165.579ZM274.619 166.679C279.719 168.479 278.219 170.679 269.219 174.279C259.819 178.079 258.719 178.179 258.719 175.679C258.719 174.279 260.319 173.179 265.019 171.479C269.619 169.679 270.619 168.979 268.919 168.779C267.619 168.579 265.219 168.879 263.519 169.479C259.319 170.979 258.719 170.879 258.719 168.679C258.719 167.579 259.519 166.479 260.519 166.279C263.919 165.379 271.519 165.579 274.619 166.679Z" fill="black" fill-opacity="0.85"/>
<path d="M167.018 159.979C157.418 162.979 148.718 172.579 146.618 182.379C143.818 195.779 150.318 209.479 162.418 215.579C169.718 219.279 180.818 219.579 188.018 216.279C212.718 204.979 211.718 170.179 186.318 160.679C179.918 158.279 173.218 158.079 167.018 159.979Z" fill="black" fill-opacity="0.85"/>
<path d="M86.7186 1.97852C78.8186 3.37851 74.5186 5.37851 73.3186 8.1785C72.8186 9.37851 71.2186 11.0785 69.8186 12.0785C65.1186 15.1785 63.6186 18.3785 59.7186 33.8785C56.4186 46.7785 55.3186 49.4785 53.0186 51.3785C35.3186 66.1785 24.8186 82.4785 19.7186 103.379C17.9186 110.579 11.4186 158.879 3.11863 225.079C-0.881371 257.079 -0.981371 266.779 2.51863 280.179C9.21863 305.279 27.8186 318.679 54.2186 317.279C70.0186 316.479 82.4186 310.779 95.4186 298.279C102.819 291.279 105.519 287.179 122.219 258.079C129.119 245.979 135.219 235.779 135.619 235.279C136.019 234.879 138.919 236.379 142.119 238.579C154.219 247.079 165.319 251.379 177.319 252.279C189.819 253.179 199.619 250.179 211.119 241.779C216.319 237.979 226.919 225.379 229.519 219.879L231.119 216.579H255.719H280.319L281.919 219.879C284.519 225.379 295.119 237.979 300.319 241.779C311.819 250.179 321.619 253.179 334.119 252.279C346.119 251.379 357.219 247.079 369.319 238.579C372.519 236.379 375.419 234.879 375.819 235.279C376.219 235.779 382.319 245.979 389.219 258.079C405.919 287.179 408.619 291.279 416.019 298.279C429.019 310.779 441.419 316.479 457.219 317.279C483.619 318.679 502.219 305.279 508.919 280.179C512.219 267.379 512.219 256.779 508.819 229.079C500.819 164.879 493.419 110.379 491.719 103.379C486.619 82.4785 476.119 66.2785 458.419 51.3785C456.119 49.4785 455.019 46.6785 451.719 33.7785C447.619 18.1785 446.219 15.1785 441.619 12.0785C440.219 11.0785 438.619 9.37851 438.119 8.1785C436.919 5.2785 431.619 2.97849 423.019 1.6785C404.019 -1.2215 379.819 2.27853 378.919 8.07852C378.819 9.17853 377.019 11.1785 375.119 12.5785C368.119 17.2785 366.119 21.4785 362.219 39.7785L360.519 47.5785H255.719H150.919L149.219 39.7785C145.319 21.4785 143.319 17.2785 136.319 12.5785C134.419 11.1785 132.619 9.17853 132.519 8.07852C131.619 2.17853 105.119 -1.42148 86.7186 1.97852ZM417.019 52.6785C421.919 53.9785 428.519 59.9785 430.819 65.0785C433.019 69.8785 433.219 78.3785 431.319 82.9785C423.719 101.279 396.819 101.479 389.319 83.3785C387.019 77.9785 387.319 69.3785 389.819 64.3785C395.019 54.0785 405.719 49.4785 417.019 52.6785ZM108.619 71.6785C115.319 73.0785 117.719 76.0785 117.719 83.0785C117.719 89.8785 115.919 99.4785 114.019 102.579C112.719 104.779 104.419 111.979 101.019 113.879C100.419 114.279 97.1186 112.479 93.7186 109.879C85.6186 103.779 83.7186 99.6785 83.0186 86.6785C82.5186 77.4785 82.6186 76.9785 84.9186 74.8785C89.0186 70.9785 99.2186 69.6785 108.619 71.6785ZM227.719 73.2785C227.719 75.9785 227.019 76.0785 224.319 74.0785C221.719 72.1785 214.719 72.0785 214.719 73.9785C214.719 74.7785 216.419 75.4785 219.719 75.8785C228.319 76.8785 231.119 80.0785 226.819 83.9785C225.419 85.2785 223.419 85.5785 217.819 85.3785C210.819 85.0785 210.719 85.0785 210.719 82.2785C210.719 79.0785 211.119 78.9785 213.819 81.6785C215.319 83.1785 216.819 83.5785 219.919 83.3785C225.319 82.9785 225.919 80.9785 221.019 80.1785C212.819 78.7785 211.619 78.3785 210.719 76.4785C209.919 75.0785 210.119 74.1785 211.719 72.5785C213.519 70.7785 214.819 70.4785 220.819 70.7785C227.219 71.0785 227.719 71.2785 227.719 73.2785ZM250.319 72.8785C257.419 78.9785 249.519 87.8785 239.019 85.5785C230.819 83.6785 229.119 75.5785 236.219 71.7785C239.919 69.6785 247.319 70.3785 250.319 72.8785ZM267.219 75.6785L271.719 79.8785V77.0785C271.719 75.5785 270.919 73.6785 270.019 72.9785C268.419 71.7785 268.819 71.6785 273.019 71.5785C275.619 71.5785 277.719 71.9785 277.719 72.5785C277.719 73.0785 277.019 73.5785 276.219 73.5785C275.019 73.5785 274.719 74.8785 274.719 79.5785C274.719 87.0785 273.519 87.2785 266.819 81.0785C264.219 78.5785 261.719 76.5785 261.319 76.5785C261.019 76.5785 260.719 78.1785 260.719 80.0785C260.719 82.4785 261.219 83.5785 262.219 83.5785C263.019 83.5785 263.719 83.9785 263.719 84.5785C263.719 85.0785 261.919 85.5785 259.819 85.5785C257.619 85.5785 255.519 85.0785 255.219 84.5785C254.919 83.9785 255.319 83.5785 256.119 83.5785C258.519 83.5785 258.319 74.7785 256.019 72.9785C254.419 71.7785 254.719 71.6785 258.519 71.5785C262.119 71.5785 263.419 72.1785 267.219 75.6785ZM288.919 72.7785C288.019 73.6785 288.119 74.3785 289.419 75.7785C290.919 77.4785 291.219 77.4785 292.819 75.9785C293.819 75.0785 294.319 73.7785 294.019 72.9785C293.619 71.8785 294.519 71.5785 297.619 71.5785C299.919 71.5785 301.719 71.9785 301.719 72.5785C301.719 73.0785 301.219 73.5785 300.519 73.5785C298.619 73.5785 292.719 79.7785 292.719 81.7785C292.719 82.7785 293.419 83.5785 294.319 83.5785C295.119 83.5785 295.519 83.9785 295.219 84.5785C294.919 85.0785 292.619 85.5785 290.119 85.5785C287.719 85.5785 285.719 85.0785 285.719 84.5785C285.719 83.9785 286.219 83.5785 286.719 83.5785C288.519 83.5785 287.719 80.4785 285.119 76.9785C283.619 75.0785 281.819 73.5785 281.119 73.5785C280.319 73.5785 279.719 73.0785 279.719 72.5785C279.719 71.9785 282.019 71.5785 284.919 71.5785C288.919 71.5785 289.819 71.8785 288.919 72.7785ZM375.919 93.7785C381.419 95.3785 388.219 101.679 390.319 107.079C392.419 112.579 391.819 121.879 389.119 126.179C384.019 134.479 378.119 137.879 369.219 137.879C351.819 137.879 341.019 119.879 349.319 104.679C354.619 94.8785 365.219 90.5785 375.919 93.7785ZM458.819 94.0785C467.619 97.2785 473.619 105.779 473.719 115.379C473.719 128.379 464.319 137.879 451.219 137.879C438.119 137.879 428.719 128.379 428.719 115.379C428.819 99.5785 443.919 88.8785 458.819 94.0785ZM80.9186 102.579C85.2186 103.779 95.7186 114.679 95.7186 117.879C95.7186 120.979 87.6186 130.279 82.9186 132.679C79.8186 134.179 76.1186 134.879 68.9186 135.279L59.1186 135.879L56.5186 132.779C51.5186 126.779 51.5186 109.379 56.5186 103.379L59.1186 100.279L68.2186 100.879C73.1186 101.279 78.9186 101.979 80.9186 102.579ZM143.219 102.779C148.819 107.679 149.019 127.379 143.519 133.279C141.319 135.679 140.919 135.779 131.719 135.279C119.019 134.579 115.019 132.879 109.319 125.579C106.819 122.379 104.719 118.979 104.719 117.979C104.719 115.779 112.419 106.279 115.819 104.179C118.919 102.279 126.919 100.879 134.919 100.679C139.519 100.579 141.119 100.979 143.219 102.779ZM305.719 109.879C315.319 112.579 317.219 113.479 317.519 115.179C317.919 118.179 316.519 118.979 304.619 122.479C288.419 127.179 287.719 126.879 287.719 116.079C287.719 105.179 288.119 105.079 305.719 109.879ZM220.519 109.179C222.319 110.479 222.719 111.679 222.719 116.579C222.719 125.079 221.919 125.579 208.719 125.579C198.119 125.579 197.719 125.479 196.119 123.079C193.919 119.679 194.619 110.879 197.319 108.879C200.019 106.879 217.619 107.079 220.519 109.179ZM108.519 128.179C115.619 134.479 116.419 136.679 117.319 150.079C117.919 158.779 117.819 159.179 115.419 161.379C109.419 166.979 91.0186 166.979 85.0186 161.379C82.5186 159.179 82.5186 158.779 83.0186 149.379C83.4186 142.179 84.1186 138.479 85.6186 135.379C88.1186 130.579 97.1186 122.679 100.319 122.579C101.419 122.579 105.119 125.079 108.519 128.179ZM263.519 134.879C278.319 138.779 287.919 154.179 284.819 169.279C280.719 190.079 256.919 199.979 239.119 188.179C222.119 176.879 221.719 151.479 238.419 139.379C245.619 134.079 254.319 132.579 263.519 134.879ZM419.219 135.979C428.119 140.179 432.719 147.179 432.719 156.579C432.719 169.479 423.119 178.979 410.219 178.979C397.219 178.979 387.719 169.379 387.719 156.379C387.819 139.779 404.519 128.979 419.219 135.979ZM188.919 155.979C196.119 158.979 201.719 163.379 205.619 169.279C209.719 175.479 211.119 180.579 211.119 189.579C211.119 217.279 179.619 233.679 156.419 218.079C149.919 213.779 146.019 208.879 142.919 201.179C139.719 193.279 140.119 181.579 143.719 174.079C147.919 165.479 155.719 158.279 164.619 155.079C170.619 152.779 182.319 153.279 188.919 155.979ZM350.719 156.679C372.819 167.079 377.919 196.379 360.619 213.779C352.119 222.279 340.919 225.879 329.519 223.579C321.319 221.979 316.519 219.479 310.819 213.779C292.719 195.679 298.819 165.879 322.519 155.879C330.419 152.579 342.719 152.879 350.719 156.679Z" fill="black" fill-opacity="0.85"/>
<path d="M403.86 18.2266H409.744C411.079 18.2266 412.206 18.43 413.125 18.8369C414.053 19.2438 414.757 19.846 415.237 20.6436C415.726 21.4329 415.97 22.4054 415.97 23.561C415.97 24.3748 415.803 25.1195 415.469 25.7949C415.144 26.4622 414.672 27.0319 414.053 27.5039C413.443 27.9678 412.71 28.3136 411.856 28.5415L411.197 28.7979H405.667L405.643 26.8813H409.817C410.664 26.8813 411.368 26.7349 411.929 26.4419C412.491 26.1408 412.914 25.738 413.199 25.2334C413.484 24.7288 413.626 24.1714 413.626 23.561C413.626 22.8774 413.492 22.2793 413.223 21.7666C412.955 21.2539 412.531 20.8592 411.954 20.5825C411.384 20.2977 410.647 20.1553 409.744 20.1553H406.216V36H403.86V18.2266ZM414.249 36L409.927 27.9434L412.381 27.9312L416.763 35.8535V36H414.249Z" fill="#C4C4C4" fill-opacity="0.5"/>
<path d="M326.018 160.379C319.318 162.779 314.218 166.779 310.618 172.379C303.018 184.379 304.118 198.279 313.418 208.579C320.418 216.379 324.318 218.079 335.718 218.079C347.118 218.079 351.018 216.379 358.018 208.579C368.418 196.979 368.318 180.279 357.618 168.179C350.618 160.179 336.418 156.679 326.018 160.379Z" fill="black" fill-opacity="0.85"/>
<path d="M290.699 102.023C290.699 101.841 290.671 101.68 290.613 101.54C290.56 101.397 290.463 101.268 290.323 101.153C290.187 101.039 289.997 100.93 289.754 100.826C289.514 100.722 289.21 100.616 288.841 100.509C288.454 100.394 288.105 100.267 287.793 100.127C287.482 99.9842 287.215 99.8213 286.993 99.6387C286.771 99.4561 286.601 99.2466 286.483 99.0103C286.365 98.7739 286.306 98.5036 286.306 98.1992C286.306 97.8949 286.368 97.6138 286.494 97.356C286.619 97.0981 286.798 96.8743 287.031 96.6846C287.267 96.4912 287.548 96.3408 287.874 96.2334C288.2 96.126 288.563 96.0723 288.964 96.0723C289.552 96.0723 290.049 96.1851 290.458 96.4106C290.869 96.6326 291.183 96.9245 291.397 97.2861C291.612 97.6442 291.72 98.0273 291.72 98.4355H290.688C290.688 98.1419 290.626 97.8823 290.5 97.6567C290.375 97.4276 290.185 97.2485 289.931 97.1196C289.677 96.9871 289.355 96.9209 288.964 96.9209C288.596 96.9209 288.291 96.9764 288.051 97.0874C287.811 97.1984 287.632 97.3488 287.514 97.5386C287.4 97.7284 287.342 97.945 287.342 98.1885C287.342 98.3532 287.376 98.5036 287.444 98.6396C287.516 98.7721 287.625 98.8957 287.772 99.0103C287.922 99.1248 288.112 99.2305 288.341 99.3271C288.574 99.4238 288.852 99.5169 289.174 99.6064C289.618 99.7318 290.001 99.8714 290.323 100.025C290.646 100.179 290.91 100.353 291.118 100.546C291.329 100.736 291.485 100.953 291.585 101.196C291.689 101.436 291.741 101.708 291.741 102.013C291.741 102.331 291.677 102.62 291.548 102.877C291.419 103.135 291.235 103.355 290.995 103.538C290.755 103.721 290.466 103.862 290.13 103.962C289.797 104.059 289.424 104.107 289.013 104.107C288.651 104.107 288.295 104.057 287.944 103.957C287.597 103.857 287.28 103.706 286.993 103.506C286.71 103.305 286.483 103.058 286.311 102.765C286.143 102.467 286.059 102.124 286.059 101.733H287.09C287.09 102.002 287.142 102.233 287.246 102.426C287.349 102.616 287.491 102.774 287.67 102.899C287.853 103.024 288.058 103.117 288.288 103.178C288.52 103.236 288.762 103.264 289.013 103.264C289.374 103.264 289.681 103.214 289.931 103.114C290.182 103.014 290.372 102.87 290.5 102.684C290.633 102.498 290.699 102.278 290.699 102.023ZM295.952 96.1797V104H294.932V96.1797H295.952ZM298.466 96.1797V97.0283H292.423V96.1797H298.466ZM302.091 96.8726L299.502 104H298.444L301.425 96.1797H302.107L302.091 96.8726ZM304.261 104L301.667 96.8726L301.651 96.1797H302.333L305.325 104H304.261ZM304.127 101.105V101.954H299.733V101.105H304.127ZM306.372 96.1797H308.961C309.548 96.1797 310.044 96.2692 310.449 96.4482C310.857 96.6273 311.167 96.8923 311.378 97.2432C311.593 97.5905 311.7 98.0184 311.7 98.5269C311.7 98.8849 311.627 99.2126 311.48 99.5098C311.337 99.8034 311.129 100.054 310.857 100.262C310.588 100.466 310.266 100.618 309.89 100.718L309.6 100.831H307.167L307.156 99.9878H308.993C309.366 99.9878 309.675 99.9233 309.922 99.7944C310.169 99.6619 310.356 99.4847 310.481 99.2627C310.606 99.0407 310.669 98.7954 310.669 98.5269C310.669 98.2261 310.61 97.9629 310.492 97.7373C310.374 97.5117 310.187 97.3381 309.933 97.2163C309.682 97.091 309.358 97.0283 308.961 97.0283H307.409V104H306.372V96.1797ZM310.943 104L309.042 100.455L310.121 100.45L312.049 103.936V104H310.943ZM315.61 96.1797V104H314.59V96.1797H315.61ZM318.124 96.1797V97.0283H312.082V96.1797H318.124Z" fill="white"/>
<path d="M107.604 34.0835V36H98.7168V34.0835H107.604ZM99.1807 18.2266V36H96.8247V18.2266H99.1807Z" fill="#C4C4C4" fill-opacity="0.5"/>
<path d="M195.81 102.023C195.81 101.841 195.781 101.68 195.724 101.54C195.67 101.397 195.573 101.268 195.434 101.153C195.298 101.039 195.108 100.93 194.864 100.826C194.624 100.722 194.32 100.616 193.951 100.509C193.564 100.394 193.215 100.267 192.904 100.127C192.592 99.9842 192.326 99.8213 192.104 99.6387C191.882 99.4561 191.711 99.2466 191.593 99.0103C191.475 98.7739 191.416 98.5036 191.416 98.1992C191.416 97.8949 191.479 97.6138 191.604 97.356C191.729 97.0981 191.908 96.8743 192.141 96.6846C192.377 96.4912 192.659 96.3408 192.984 96.2334C193.31 96.126 193.674 96.0723 194.075 96.0723C194.662 96.0723 195.16 96.1851 195.568 96.4106C195.98 96.6326 196.293 96.9245 196.508 97.2861C196.723 97.6442 196.83 98.0273 196.83 98.4355H195.799C195.799 98.1419 195.736 97.8823 195.611 97.6567C195.486 97.4276 195.296 97.2485 195.042 97.1196C194.787 96.9871 194.465 96.9209 194.075 96.9209C193.706 96.9209 193.402 96.9764 193.162 97.0874C192.922 97.1984 192.743 97.3488 192.625 97.5386C192.51 97.7284 192.453 97.945 192.453 98.1885C192.453 98.3532 192.487 98.5036 192.555 98.6396C192.626 98.7721 192.736 98.8957 192.882 99.0103C193.033 99.1248 193.222 99.2305 193.452 99.3271C193.684 99.4238 193.962 99.5169 194.284 99.6064C194.728 99.7318 195.111 99.8714 195.434 100.025C195.756 100.179 196.021 100.353 196.229 100.546C196.44 100.736 196.596 100.953 196.696 101.196C196.8 101.436 196.852 101.708 196.852 102.013C196.852 102.331 196.787 102.62 196.658 102.877C196.529 103.135 196.345 103.355 196.105 103.538C195.865 103.721 195.577 103.862 195.24 103.962C194.907 104.059 194.535 104.107 194.123 104.107C193.761 104.107 193.405 104.057 193.054 103.957C192.707 103.857 192.39 103.706 192.104 103.506C191.821 103.305 191.593 103.058 191.421 102.765C191.253 102.467 191.169 102.124 191.169 101.733H192.2C192.2 102.002 192.252 102.233 192.356 102.426C192.46 102.616 192.601 102.774 192.78 102.899C192.963 103.024 193.169 103.117 193.398 103.178C193.631 103.236 193.872 103.264 194.123 103.264C194.485 103.264 194.791 103.214 195.042 103.114C195.292 103.014 195.482 102.87 195.611 102.684C195.743 102.498 195.81 102.278 195.81 102.023ZM203.141 103.157V104H199V103.157H203.141ZM199.209 96.1797V104H198.173V96.1797H199.209ZM202.593 99.542V100.385H199V99.542H202.593ZM203.087 96.1797V97.0283H199V96.1797H203.087ZM209.167 103.157V104H205.257V103.157H209.167ZM205.461 96.1797V104H204.425V96.1797H205.461ZM215.323 103.157V104H211.182V103.157H215.323ZM211.391 96.1797V104H210.354V96.1797H211.391ZM214.775 99.542V100.385H211.182V99.542H214.775ZM215.269 96.1797V97.0283H211.182V96.1797H215.269ZM221.328 101.513H222.359C222.305 102.007 222.164 102.45 221.935 102.84C221.705 103.23 221.381 103.54 220.962 103.769C220.543 103.995 220.021 104.107 219.394 104.107C218.936 104.107 218.519 104.021 218.143 103.85C217.77 103.678 217.45 103.434 217.181 103.119C216.913 102.8 216.705 102.419 216.558 101.975C216.415 101.528 216.343 101.03 216.343 100.482V99.7031C216.343 99.1553 216.415 98.6593 216.558 98.2153C216.705 97.7677 216.914 97.3846 217.187 97.0659C217.462 96.7472 217.793 96.502 218.18 96.3301C218.567 96.1582 219.002 96.0723 219.485 96.0723C220.076 96.0723 220.576 96.1833 220.984 96.4053C221.392 96.6273 221.709 96.9352 221.935 97.3291C222.164 97.7194 222.305 98.1724 222.359 98.688H221.328C221.278 98.3228 221.184 98.0094 221.048 97.748C220.912 97.4831 220.719 97.279 220.468 97.1357C220.218 96.9925 219.89 96.9209 219.485 96.9209C219.138 96.9209 218.832 96.9871 218.567 97.1196C218.306 97.2521 218.085 97.4401 217.906 97.6836C217.731 97.9271 217.598 98.2189 217.509 98.5591C217.419 98.8993 217.375 99.277 217.375 99.6924V100.482C217.375 100.865 217.414 101.225 217.493 101.562C217.575 101.898 217.699 102.194 217.863 102.448C218.028 102.702 218.237 102.903 218.492 103.049C218.746 103.193 219.047 103.264 219.394 103.264C219.834 103.264 220.185 103.194 220.447 103.055C220.708 102.915 220.905 102.715 221.038 102.453C221.174 102.192 221.27 101.878 221.328 101.513ZM226.5 96.1797V104H225.479V96.1797H226.5ZM229.014 96.1797V97.0283H222.971V96.1797H229.014Z" fill="white"/>
</svg>
